<svg height="512pt" viewBox="0 -20 512 512" width="512pt" xmlns="http://www.w3.org/2000/svg"><path d="m94 336.332031h-84c-5.523438 0-10 4.476563-10 10v115.667969c0 5.523438 4.476562 10 10 10h84c5.523438 0 10-4.476562 10-10v-115.667969c0-5.519531-4.476562-10-10-10zm-10 115.667969h-64v-95.667969h64zm0 0"/><path d="m229.667969 212h-84c-5.523438 0-10 4.476562-10 10v240c0 5.523438 4.476562 10 10 10h84c5.523437 0 10-4.476562 10-10v-240c0-5.523438-4.480469-10-10-10zm-10 240h-64v-220h64zm0 0"/><path d="m365.941406 244h-84c-5.519531 0-10 4.476562-10 10v208c0 5.523438 4.480469 10 10 10h84c5.523438 0 10-4.476562 10-10v-208c0-5.523438-4.476562-10-10-10zm-10 208h-64v-188h64zm0 0"/><path d="m52 298c23.160156 0 42-18.839844 42-42 0-7.308594-1.882812-14.1875-5.179688-20.179688l75.542969-69.230468c6.671875 4.464844 14.6875 7.078125 23.304688 7.078125 16.300781 0 30.449219-9.339844 37.40625-22.945313l56.878906 13.355469c.222656 22.972656 18.96875 41.589844 41.992187 41.589844 23.15625 0 42-18.839844 42-42 0-7.128907-1.792968-13.84375-4.9375-19.730469l75.265626-67.304688c6.753906 4.640626 14.925781 7.367188 23.726562 7.367188 23.160156 0 42-18.839844 42-42s-18.839844-42-42-42-42 18.839844-42 42c0 7.128906 1.789062 13.84375 4.9375 19.730469l-75.269531 67.304687c-6.753907-4.644531-14.925781-7.367187-23.726563-7.367187-16.296875 0-30.449218 9.339843-37.40625 22.941406l-56.878906-13.355469c-.222656-22.96875-18.96875-41.585937-41.992188-41.585937-23.15625 0-42 18.839843-42 42 0 7.308593 1.882813 14.1875 5.179688 20.179687l-75.539062 69.230469c-6.671876-4.46875-14.6875-7.078125-23.304688-7.078125-23.160156 0-42 18.839844-42 42s18.839844 42 42 42zm408-278c12.132812 0 22 9.867188 22 22s-9.867188 22-22 22-22-9.867188-22-22 9.867188-22 22-22zm-136.058594 121.667969c12.132813 0 22 9.867187 22 22 0 12.128906-9.867187 22-22 22-12.128906 0-22-9.871094-22-22 0-12.132813 9.871094-22 22-22zm-136.273437-32c12.128906 0 22 9.867187 22 22 0 12.128906-9.871094 22-22 22-12.132813 0-22-9.871094-22-22 0-12.132813 9.867187-22 22-22zm-135.667969 124.332031c12.132812 0 22 9.867188 22 22s-9.867188 22-22 22-22-9.867188-22-22 9.867188-22 22-22zm0 0"/><path d="m502 122.332031h-84c-5.523438 0-10 4.476563-10 10v119.832031c0 5.523438 4.476562 10 10 10s10-4.476562 10-10v-109.832031h64v309.667969h-64v-109.832031c0-5.523438-4.476562-10-10-10s-10 4.476562-10 10v119.832031c0 5.523438 4.476562 10 10 10h84c5.523438 0 10-4.476562 10-10v-329.667969c0-5.519531-4.476562-10-10-10zm0 0"/><path d="m418 307.171875c2.628906 0 5.210938-1.070313 7.070312-2.933594 1.859376-1.859375 2.929688-4.4375 2.929688-7.066406 0-2.640625-1.070312-5.210937-2.929688-7.070313-1.859374-1.871093-4.441406-2.929687-7.070312-2.929687s-5.210938 1.058594-7.070312 2.929687c-1.859376 1.859376-2.929688 4.429688-2.929688 7.070313 0 2.628906 1.070312 5.207031 2.929688 7.066406 1.859374 1.863281 4.441406 2.933594 7.070312 2.933594zm0 0"/></svg>