<svg id="Capa_1" enable-background="new 0 0 512.002 512.002" height="512" viewBox="0 0 512.002 512.002" width="512" xmlns="http://www.w3.org/2000/svg"><g id="XMLID_2958_"><g id="XMLID_464_"><path id="XMLID_465_" d="m476.879 309.269-32.461-105.689c-.387-53.632-21.291-104.147-58.962-142.396-37.983-38.565-88.681-60.285-142.756-61.158-38.454-.61-76.053 9.368-108.742 28.887-4.741 2.831-6.29 8.971-3.459 13.713 2.83 4.741 8.97 6.29 13.713 3.459 29.493-17.609 63.47-26.629 98.166-26.061 100.381 1.62 182.047 84.645 182.047 185.073 0 .995.148 1.984.44 2.936l32.871 107.028h-44.854c-5.522 0-10 4.478-10 10v55.217c0 26.313-21.407 47.721-47.721 47.721h-76.375c-23.775 0-46.129-9.259-62.94-26.071-3.906-3.904-10.236-3.904-14.143 0-3.905 3.905-3.905 10.237 0 14.143 19.897 19.897 46.13 31.153 74.149 31.888l-14.691 51.287c-1.521 5.31 1.55 10.847 6.859 12.367.921.264 1.847.39 2.759.39 4.349 0 8.352-2.86 9.608-7.249l16.257-56.754h58.516c37.341 0 67.721-30.379 67.721-67.721v-45.217h34.938c6.393 0 12.237-2.948 16.036-8.09 3.799-5.141 4.901-11.594 3.024-17.703z"/><path id="XMLID_470_" d="m54.254 201.873c.586-34.546 10.641-68.018 29.076-96.799 2.979-4.65 1.623-10.835-3.027-13.814-4.65-2.977-10.836-1.622-13.814 3.027-20.437 31.905-31.582 68.99-32.231 107.246-.659 38.792 9.423 82.082 27.66 118.771 17.535 35.274 22.222 75.311 13.197 112.735l-16.062 66.615c-1.294 5.368 2.009 10.771 7.378 12.065.787.189 1.576.28 2.352.28 4.514 0 8.609-3.077 9.714-7.658l16.063-66.615c10.124-41.985 4.893-86.849-14.73-126.325-16.862-33.913-26.182-73.835-25.576-109.528z"/><path id="XMLID_471_" d="m110.436 57.794c-3.906-3.904-10.236-3.904-14.143 0-3.905 3.905-3.905 10.237 0 14.143l.01.01c1.951 1.951 4.508 2.927 7.064 2.927 2.56 0 5.119-.979 7.073-2.932 3.906-3.906 3.901-10.243-.004-14.148z"/><path id="XMLID_476_" d="m261.115 372.843c15.563 0 28.225-12.661 28.225-28.225v-37.775c0-5.522-4.478-10-10-10h-2.119v-25.857l31.249-31.249c38.117-38.118 38.117-100.142 0-138.26-38.119-38.117-100.141-38.117-138.26 0-38.117 38.118-38.117 100.142 0 138.26l31.251 31.25v25.856h-2.121c-5.522 0-10 4.478-10 10v37.775c0 15.563 12.661 28.225 28.225 28.225zm13.924-268.223c-.598-1.4-1.208-2.728-1.824-4.01 7.634 3.686 14.787 8.685 21.111 15.009 30.319 30.32 30.319 79.654 0 109.975l-25.465 25.465 6.178-14.466c15.802-37.002 15.802-94.971 0-131.973zm-53.006 7.856c6.182-14.476 12.993-19.633 17.307-19.633s11.125 5.157 17.308 19.633c13.456 31.51 13.456 84.752 0 116.262l-12.004 28.105h-10.607l-12.003-28.105c-13.458-31.51-13.458-84.753-.001-116.262zm35.187 164.367v20h-35.76v-20zm-72.868-51.249c-30.319-30.32-30.319-79.654.001-109.975 6.323-6.323 13.475-11.319 21.106-15.005-.615 1.28-1.223 2.609-1.819 4.006-15.803 37.002-15.803 94.971 0 131.973l6.178 14.467zm24.987 119.024v-27.775h60v27.775c0 4.535-3.689 8.225-8.225 8.225h-43.551c-4.534 0-8.224-3.69-8.224-8.225z"/><path id="XMLID_1363_" d="m150.663 262.844c0-5.522-4.478-10-10-10h-24.578c-5.522 0-10 4.478-10 10s4.478 10 10 10h24.578c5.522 0 10-4.478 10-10z"/><path id="XMLID_1364_" d="m154.996 296.844h-27c-5.522 0-10 4.478-10 10s4.478 10 10 10h27c5.522 0 10-4.478 10-10s-4.478-10-10-10z"/></g></g></svg>