<svg width="98" height="110" viewBox="0 0 98 110" fill="none" xmlns="http://www.w3.org/2000/svg">
<path d="M17.7597 91.5217V92.0217H18.2597H79.4333H79.9333V91.5217V87.7056C79.9333 85.9569 78.5268 84.5517 76.7778 84.5517H20.9152C19.1662 84.5517 17.7597 85.9569 17.7597 87.7056V91.5217ZM80.2087 92.5714H17.4843C17.3338 92.5714 17.209 92.4463 17.209 92.2966V87.7056C17.209 85.6574 18.865 84.002 20.9152 84.002H76.7778C78.828 84.002 80.484 85.6574 80.484 87.7056V92.2966C80.484 92.4463 80.3593 92.5714 80.2087 92.5714Z" stroke="#333333"/>
<path d="M30.7068 83.3901V83.8901H31.2068H66.4844H66.9844V83.3901V80.1099V79.6099H66.4844H31.2068H30.7068V80.1099V83.3901ZM67.2597 84.5H30.4315C30.2987 84.5 30.1561 84.3795 30.1561 84.195V79.305C30.1561 79.1205 30.2987 79 30.4315 79H67.2597C67.3925 79 67.5351 79.1205 67.5351 79.305V84.195C67.5351 84.3795 67.3925 84.5 67.2597 84.5Z" stroke="#333333"/>
<path d="M93.7806 79.5H4.21944C2.1579 79.5 0.5 77.8507 0.5 75.8193V21.1807C0.5 19.1493 2.1579 17.5 4.21944 17.5H93.7806C95.8421 17.5 97.5 19.1493 97.5 21.1807V75.8193C97.5 77.8507 95.8421 79.5 93.7806 79.5ZM4.21944 18.0413C2.46988 18.0413 1.05556 19.436 1.05556 21.1807V75.8193C1.05556 77.564 2.46988 78.9587 4.21944 78.9587H93.7806C95.5301 78.9587 96.9444 77.564 96.9444 75.8193V21.1807C96.9444 19.436 95.5301 18.0413 93.7806 18.0413H4.21944Z" stroke="#333333"/>
<path d="M84.2932 30.1991L84.2933 30.1991L84.2951 30.1972C85.0935 29.4007 86.1505 28.9679 87.2817 28.9679C88.4129 28.9679 89.4699 29.4007 90.2683 30.1972C91.0666 30.9937 91.5 32.0476 91.5 33.1752C91.5 34.3017 91.0673 35.3549 90.2702 36.1511C89.4708 36.9303 88.4126 37.363 87.2817 37.363C86.1505 37.363 85.0935 36.9302 84.2951 36.1337C82.6453 34.4877 82.648 31.8232 84.2932 30.1991ZM89.8619 35.7626L89.862 35.7626L89.8678 35.7568C90.5625 35.0637 90.9466 34.1426 90.9466 33.1752C90.9466 32.209 90.5636 31.2891 89.8706 30.5963C89.1702 29.8766 88.2631 29.5176 87.2817 29.5176C86.292 29.5176 85.3892 29.9016 84.6956 30.5935C83.2591 32.0266 83.2546 34.3402 84.697 35.7582C85.3916 36.4504 86.3137 36.8327 87.2817 36.8327C88.2571 36.8327 89.175 36.4258 89.8619 35.7626Z" stroke="#333333"/>
<path d="M84.2932 45.8124L84.2933 45.8124L84.2951 45.8105C85.0935 45.014 86.1505 44.5812 87.2817 44.5812C88.4129 44.5812 89.4699 45.014 90.2683 45.8105C91.0666 46.607 91.5 47.6609 91.5 48.7885C91.5 49.915 91.0673 50.9682 90.2702 51.7644C89.4708 52.5436 88.4126 52.9763 87.2817 52.9763C86.1505 52.9763 85.0935 52.5435 84.2951 51.747C82.6453 50.101 82.648 47.4365 84.2932 45.8124ZM87.2817 45.1115C86.292 45.1115 85.3892 45.4955 84.6956 46.1874C83.2591 47.6205 83.2546 49.9341 84.697 51.3522C85.3916 52.0444 86.3137 52.4266 87.2817 52.4266C88.2504 52.4266 89.1731 52.0438 89.8678 51.3508C90.5625 50.6576 90.9466 49.7365 90.9466 48.7691C90.9466 47.8016 90.5625 46.8805 89.8678 46.1874C89.1742 45.4955 88.2714 45.1115 87.2817 45.1115Z" stroke="#333333"/>
<path d="M84.2932 61.4258L84.2933 61.4258L84.2951 61.424C85.0935 60.6275 86.1505 60.1946 87.2817 60.1946C88.4129 60.1946 89.4699 60.6275 90.2683 61.424C91.0666 62.2204 91.5 63.2744 91.5 64.4019C91.5 65.5285 91.0673 66.5816 90.2702 67.3778C89.4708 68.1571 88.4126 68.5898 87.2817 68.5898C86.1505 68.5898 85.0935 68.1569 84.2951 67.3604C82.6453 65.7145 82.648 63.0499 84.2932 61.4258ZM87.2817 60.725C86.292 60.725 85.3892 61.1089 84.6956 61.8008C83.2591 63.2339 83.2546 65.5476 84.697 66.9656C85.3916 67.6578 86.3137 68.04 87.2817 68.04C88.2504 68.04 89.1731 67.6573 89.8678 66.9642C90.5625 66.2711 90.9466 65.35 90.9466 64.3825C90.9466 63.394 90.5613 62.4928 89.8678 61.8008C89.1742 61.1089 88.2714 60.725 87.2817 60.725Z" stroke="#333333"/>
<path d="M87.2813 64.6574H81.0873C79.8673 64.6574 78.869 63.6597 78.869 62.4454V35.0929C78.869 33.8786 79.8673 32.8809 81.0873 32.8809H87.2813C87.4335 32.8809 87.558 33.0069 87.558 33.1558C87.558 33.3047 87.4335 33.4307 87.2813 33.4307H81.0873C80.1715 33.4307 79.4223 34.1764 79.4223 35.0929V62.4454C79.4223 63.3619 80.1715 64.1076 81.0873 64.1076H87.2813C87.4335 64.1076 87.558 64.2336 87.558 64.3825C87.558 64.5314 87.4335 64.6574 87.2813 64.6574Z" stroke="#333333"/>
<path d="M87.2812 49.0439H74.7767C74.6245 49.0439 74.5 48.918 74.5 48.7691C74.5 48.6202 74.6245 48.4942 74.7767 48.4942H87.2812C87.4333 48.4942 87.5579 48.6202 87.5579 48.7691C87.5579 48.918 87.4333 49.0439 87.2812 49.0439Z" stroke="#333333"/>
<path d="M13.7072 36.1124L13.7071 36.1123L13.7015 36.118C12.9042 36.9307 11.8492 37.3629 10.7185 37.3629C9.58725 37.3629 8.53021 36.9301 7.7318 36.1336C6.93343 35.3371 6.5 34.2832 6.5 33.1557C6.5 32.0282 6.93343 30.9742 7.7318 30.1778C8.53021 29.3813 9.58725 28.9484 10.7185 28.9484C11.8498 28.9484 12.9069 29.3813 13.7053 30.1778C15.3552 31.8238 15.3525 34.4883 13.7072 36.1124ZM13.2989 35.7625L13.2989 35.7625L13.3019 35.7595C14.7428 34.3445 14.7442 32.0116 13.3062 30.5948C12.6048 29.8749 11.6783 29.5175 10.7185 29.5175C9.72879 29.5175 8.82593 29.9015 8.13236 30.5934C7.43758 31.2865 7.05343 32.2076 7.05343 33.1751C7.05343 34.1425 7.43758 35.0636 8.13236 35.7568C8.8271 36.4498 9.74985 36.8326 10.7185 36.8326C11.694 36.8326 12.6119 36.4257 13.2989 35.7625Z" stroke="#333333"/>
<path d="M13.7072 51.7258L13.7071 51.7257L13.7015 51.7315C12.9042 52.5441 11.8492 52.9764 10.7185 52.9764C9.58725 52.9764 8.53021 52.5435 7.7318 51.747C6.93343 50.9506 6.5 49.8966 6.5 48.7691C6.5 47.6416 6.93343 46.5877 7.7318 45.7912C8.53021 44.9947 9.58725 44.5619 10.7185 44.5619C11.8498 44.5619 12.9069 44.9947 13.7053 45.7912C15.3552 47.4372 15.3525 50.1017 13.7072 51.7258ZM10.7185 45.1116C9.72879 45.1116 8.82593 45.4955 8.13236 46.1874C7.43758 46.8805 7.05343 47.8016 7.05343 48.7691C7.05343 49.7366 7.43758 50.6577 8.13236 51.3508C8.8271 52.0439 9.74985 52.4267 10.7185 52.4267C11.6866 52.4267 12.6087 52.0444 13.3033 51.3522C14.7438 49.9361 14.7438 47.6021 13.3033 46.186C12.6087 45.4938 11.6866 45.1116 10.7185 45.1116Z" stroke="#333333"/>
<path d="M13.7072 67.3391L13.7071 67.3391L13.7015 67.3448C12.9042 68.1574 11.8492 68.5897 10.7185 68.5897C9.58725 68.5897 8.53021 68.1568 7.7318 67.3603C6.93343 66.5639 6.5 65.5099 6.5 64.3824C6.5 63.2549 6.93344 62.201 7.7318 61.4045C8.53021 60.608 9.58725 60.1752 10.7185 60.1752C11.8498 60.1752 12.9069 60.608 13.7053 61.4045C15.3552 63.0505 15.3525 65.715 13.7072 67.3391ZM10.7185 60.7249C9.72879 60.7249 8.82593 61.1088 8.13236 61.8007C7.43758 62.4939 7.05343 63.415 7.05343 64.3824C7.05343 65.3709 7.43876 66.2722 8.13236 66.9641C8.8271 67.6572 9.74985 68.04 10.7185 68.04C11.6866 68.04 12.6087 67.6577 13.3033 66.9656C14.7438 65.5495 14.7438 63.2154 13.3033 61.7994C12.6087 61.1072 11.6866 60.7249 10.7185 60.7249Z" stroke="#333333"/>
<path d="M16.9125 64.6573H10.7182C10.566 64.6573 10.4415 64.5314 10.4415 64.3825C10.4415 64.2336 10.566 64.1076 10.7182 64.1076H16.9125C17.8283 64.1076 18.5776 63.3619 18.5776 62.4454V35.0929C18.5776 34.1764 17.8283 33.4307 16.9125 33.4307H10.7182C10.566 33.4307 10.4415 33.3047 10.4415 33.1558C10.4415 33.0069 10.566 32.8809 10.7182 32.8809H16.9125C18.1326 32.8809 19.131 33.8786 19.131 35.0929V62.4454C19.131 63.6597 18.1326 64.6573 16.9125 64.6573Z" stroke="#333333"/>
<path d="M23.2233 49.044H10.7182C10.566 49.044 10.4415 48.918 10.4415 48.7691C10.4415 48.6202 10.566 48.4943 10.7182 48.4943H23.2233C23.3755 48.4943 23.5 48.6202 23.5 48.7691C23.5 48.918 23.3755 49.044 23.2233 49.044Z" stroke="#333333"/>
<path d="M45.2989 51.0065L45.1739 50.6905H44.834H41.5389H41.192L41.0705 51.0154L40.414 52.7714C40.3707 52.8745 40.2625 52.9376 40.182 52.9376C40.1591 52.9376 40.1395 52.935 40.0913 52.9236C39.968 52.8608 39.9138 52.7228 39.9547 52.5996L42.9542 44.6318C42.9926 44.5411 43.1111 44.465 43.2058 44.465H43.2214L43.237 44.464C43.3135 44.4592 43.4107 44.5071 43.4549 44.6249L43.4551 44.6254L46.4569 52.5997C46.5035 52.7395 46.4292 52.8765 46.3314 52.9209C46.275 52.9345 46.2543 52.9376 46.2296 52.9376C46.1323 52.9376 46.0379 52.8789 46 52.7777L46 52.7776L45.9967 52.7693L45.2989 51.0065ZM44.2719 50.1795H44.9952L44.7397 49.5029L43.6348 46.5778L43.1671 45.3394L42.6993 46.5778L41.5945 49.5029L41.3389 50.1795H42.0622H44.2719Z" stroke="#FC2C38"/>
<path d="M50.2607 49.2377H49.7607V49.7377V52.6821C49.7607 52.8125 49.6359 52.9376 49.5047 52.9376C49.3735 52.9376 49.2488 52.8125 49.2488 52.6821V44.6817C49.2488 44.5403 49.3651 44.4262 49.5047 44.4262H51.9276C53.2628 44.4262 54.3545 45.5027 54.3545 46.8513C54.3545 48.1418 53.2821 49.2377 51.9276 49.2377H50.2607ZM49.7607 48.2267V48.7267H50.2607H51.9276C53.0006 48.7267 53.8163 47.8835 53.8425 46.8641L53.8428 46.8516L53.8425 46.8391C53.8168 45.7892 53.0091 44.9372 51.9276 44.9372H50.2607H49.7607V45.4372V48.2267Z" stroke="#FC2C38"/>
<path d="M57.272 44.6624C57.272 44.5126 57.3773 44.4069 57.5279 44.4069C57.6675 44.4069 57.7839 44.521 57.7839 44.6624V52.6628C57.7839 52.8042 57.6675 52.9183 57.5279 52.9183C57.3773 52.9183 57.272 52.8125 57.272 52.6628V44.6624Z" stroke="#FC2C38"/>
<path d="M53.2348 74.7463H44.7846C44.3582 74.7463 44.0093 74.3976 44.0093 73.9714V69.9228C41.7417 69.3804 39.571 68.4893 37.5747 67.2495L34.7063 70.1165C34.4156 70.4071 33.8923 70.4071 33.6016 70.1165L27.6321 64.1501C27.4771 63.9951 27.3996 63.8014 27.3996 63.6077C27.3996 63.3946 27.4771 63.2009 27.6321 63.0653L30.5006 60.1983C29.2602 58.2031 28.3686 56.0529 27.8259 53.767H23.7753C23.3489 53.767 23 53.4183 23 52.9922V44.5462C23 44.1201 23.3489 43.7714 23.7753 43.7714H27.8259C28.3686 41.5049 29.2602 39.3353 30.5006 37.3401L27.6321 34.4731C27.4771 34.3181 27.3996 34.1244 27.3996 33.9307C27.3996 33.737 27.4771 33.5239 27.6321 33.3883L33.6016 27.4219C33.9117 27.112 34.3962 27.112 34.7063 27.4219L37.5747 30.2889C39.571 29.0491 41.7223 28.158 44.0093 27.6156V23.567C44.0093 23.1408 44.3582 22.7922 44.7846 22.7922H53.2348C53.6612 22.7922 54.0101 23.1408 54.0101 23.567V27.6156C56.2777 28.158 58.4484 29.0491 60.4447 30.2889L63.3131 27.4219C63.6038 27.1314 64.1271 27.1314 64.4178 27.4219L70.3872 33.3883C70.6973 33.6983 70.6973 34.1825 70.3872 34.4925L67.4994 37.3401C68.7398 39.3353 69.6314 41.4856 70.1741 43.7714H74.2247C74.6511 43.7714 75 44.1201 75 44.5462V52.9922C75 53.4183 74.6511 53.767 74.2247 53.767H70.1741C69.6314 56.0335 68.7398 58.2031 67.4994 60.1983L70.3679 63.0653C70.678 63.3752 70.678 63.8595 70.3679 64.1695L64.3984 70.1359C64.0883 70.4458 63.6038 70.4458 63.2937 70.1359L60.4447 67.2689C58.4484 68.5087 56.2971 69.3997 54.0101 69.9421V73.9908C54.0101 74.4169 53.6612 74.7463 53.2348 74.7463ZM45.5598 73.1965H52.4596V69.3029C52.4596 68.9348 52.7115 68.6249 53.0798 68.5474C55.5993 68.0244 57.9638 67.0558 60.1152 65.6223C60.4253 65.4286 60.8323 65.4674 61.0842 65.7192L63.8558 68.4699L68.7398 63.5883L65.9877 60.8376C65.7357 60.5858 65.6776 60.179 65.8908 59.869C67.325 57.7188 68.2941 55.3361 68.8174 52.8372C68.8949 52.4691 69.205 52.2173 69.5732 52.2173H73.4689V45.3211H69.5539C69.1856 45.3211 68.8755 45.0693 68.798 44.7012C68.2747 42.1829 67.3056 39.8196 65.8714 37.6694C65.6776 37.3594 65.7164 36.9526 65.9683 36.7008L68.7205 33.9307L63.8364 29.0491L61.0649 31.7999C60.8129 32.0517 60.4059 32.1098 60.0958 31.8967C57.9638 30.502 55.5993 29.514 53.0798 28.991C52.7115 28.9135 52.4596 28.6036 52.4596 28.2355V24.3419H45.5598V28.2355C45.5598 28.6036 45.3079 28.9135 44.9396 28.991C42.4201 29.514 40.0555 30.4826 37.9042 31.9161C37.5941 32.1098 37.1871 32.0711 36.9351 31.8192L34.183 29.0685L29.2989 33.9501L32.0511 36.7008C32.303 36.9526 32.3612 37.3594 32.148 37.6694C30.7138 39.8196 29.7447 42.2023 29.2214 44.7012C29.1439 45.0693 28.8338 45.3211 28.4655 45.3211H24.5699V52.2173H28.4655C28.8338 52.2173 29.1439 52.4691 29.2214 52.8372C29.7447 55.3555 30.7138 57.7188 32.148 59.869C32.3418 60.179 32.303 60.5858 32.0511 60.8376L29.2795 63.6077L34.1636 68.4893L36.9158 65.7386C37.1677 65.4867 37.5747 65.4286 37.8848 65.6417C40.0362 67.0752 42.4201 68.0437 44.9202 68.5668C45.2885 68.6443 45.5404 68.9542 45.5404 69.3223V73.1965H45.5598ZM49.0097 63.2203C41.044 63.2203 34.5512 56.7308 34.5512 48.7692C34.5512 40.8076 41.044 34.3181 49.0097 34.3181C56.9754 34.3181 63.4681 40.8076 63.4681 48.7692C63.4681 56.7308 56.9754 63.2203 49.0097 63.2203ZM49.0097 35.8679C41.8968 35.8679 36.1017 41.6599 36.1017 48.7692C36.1017 55.8785 41.8968 61.6706 49.0097 61.6706C56.1226 61.6706 61.9176 55.8785 61.9176 48.7692C61.9176 41.6599 56.1226 35.8679 49.0097 35.8679Z" fill="#FC2C38"/>
</svg>
