<svg width="111" height="110" viewBox="0 0 111 110" fill="none" xmlns="http://www.w3.org/2000/svg">
<g clip-path="url(#clip0)">
<path d="M43.1128 27.6758H33.6515C31.8958 27.6758 30.4815 26.2447 30.4815 24.5225C30.4815 23.6736 30.8229 22.8731 31.4081 22.291C32.0177 21.6846 32.798 21.3693 33.6515 21.3693H61.1577C61.182 20.8842 61.182 20.399 61.182 19.9139H33.6515C32.4079 19.9139 31.2374 20.399 30.3596 21.2722C29.4817 22.1455 28.994 23.3097 28.994 24.5468C28.994 27.0936 31.0667 29.1554 33.6271 29.1554H43.0885C43.503 29.1554 43.82 28.8401 43.82 28.4277C43.8444 27.9911 43.503 27.6758 43.1128 27.6758Z" fill="#3A312A"/>
<path d="M60.8149 27.6759H49.5247C49.1102 27.6759 48.7932 27.9912 48.7932 28.4035C48.7932 28.8159 49.1102 29.1312 49.5247 29.1312H60.7661C60.7905 28.6461 60.7905 28.161 60.8149 27.6759Z" fill="#3A312A"/>
<path d="M65.8147 24.5225C65.8147 21.6846 66.3512 18.9437 67.3997 16.3483C67.4973 16.13 67.4729 15.8632 67.3266 15.6692C67.1803 15.4751 66.9608 15.3539 66.717 15.3539H64.2053C62.0106 15.3539 60.2305 17.1245 60.2305 19.3075V29.7375C60.2305 31.9206 62.0106 33.6912 64.2053 33.6912H66.717C66.9608 33.6912 67.1803 33.57 67.3266 33.3759C67.4729 33.1819 67.4973 32.915 67.3997 32.6967C66.3512 30.0771 65.8147 27.3362 65.8147 24.5225ZM65.6684 32.2359H64.2053C62.8153 32.2359 61.6936 31.1201 61.6936 29.7375V19.3075C61.6936 17.925 62.8153 16.8092 64.2053 16.8092H65.6684C64.7905 19.2833 64.3516 21.8544 64.3516 24.5225C64.3516 27.1907 64.7905 29.7618 65.6684 32.2359Z" fill="#3A312A"/>
<path d="M87.6649 1.30981C74.814 1.30981 64.3529 11.7155 64.3529 24.5226C64.3529 37.3297 74.814 47.7354 87.6649 47.7354C100.516 47.7354 111.001 37.3297 111.001 24.5226C111.001 11.7155 100.54 1.30981 87.6649 1.30981ZM87.6649 46.2558C75.6187 46.2558 65.816 36.505 65.816 24.4983C65.816 12.4917 75.6187 2.7409 87.6649 2.7409C99.711 2.7409 109.538 12.4917 109.538 24.4983C109.538 36.505 99.7354 46.2558 87.6649 46.2558Z" fill="#3A312A"/>
<path d="M87.663 7.05842C77.9822 7.05842 70.1059 14.893 70.1059 24.5226C70.1059 34.1521 77.9822 41.9868 87.663 41.9868C97.3438 41.9868 105.22 34.1521 105.22 24.5226C105.22 14.893 97.3438 7.05842 87.663 7.05842ZM87.663 40.5314C78.7869 40.5314 71.569 33.3517 71.569 24.5226C71.569 15.6935 78.7869 8.51377 87.663 8.51377C96.5391 8.51377 103.757 15.6935 103.757 24.5226C103.757 33.3517 96.5391 40.5314 87.663 40.5314Z" fill="#3A312A"/>
<path d="M80.0308 45.4069C79.5187 45.4311 79.0554 45.2371 78.6652 44.946L72.8372 54.5028L50.964 62.5315L27.3594 50.064C27.0668 49.8942 26.6766 49.967 26.4572 50.2338L11.8263 67.2128C11.558 67.5282 11.6068 67.989 11.8994 68.2316C12.0457 68.3529 12.2164 68.4014 12.3871 68.4014C12.5822 68.4014 12.8017 68.3043 12.948 68.1588L27.1887 51.6164L50.5738 63.9626C50.7689 64.0596 50.964 64.0838 51.1591 64.0111L73.5932 55.7641C73.7395 55.7156 73.8858 55.5943 73.9589 55.4488L80.0795 45.3826C80.0795 45.3826 80.0552 45.4069 80.0308 45.4069Z" fill="#FC2C38"/>
<path d="M93.2235 22.4366C92.8821 22.2183 92.4188 22.3396 92.2237 22.6792L81.7382 39.8765C82.2015 40.0706 82.616 40.4344 82.8355 40.8225V40.8467L93.4429 23.4311C93.6868 23.0915 93.5649 22.6549 93.2235 22.4366Z" fill="#FC2C38"/>
<path d="M27.0185 54.5998C29.1733 54.5998 30.9201 52.8622 30.9201 50.7188C30.9201 48.5754 29.1733 46.8379 27.0185 46.8379C24.8637 46.8379 23.1169 48.5754 23.1169 50.7188C23.1169 52.8622 24.8637 54.5998 27.0185 54.5998Z" fill="white"/>
<path d="M27.0183 46.1102C24.4579 46.1102 22.3852 48.172 22.3852 50.7188C22.3852 53.2657 24.4579 55.3274 27.0183 55.3274C29.5787 55.3274 31.6514 53.2657 31.6514 50.7188C31.6514 48.172 29.5543 46.1102 27.0183 46.1102ZM27.0183 53.8721C25.2626 53.8721 23.8483 52.4653 23.8483 50.7188C23.8483 48.9724 25.2626 47.5656 27.0183 47.5656C28.774 47.5656 30.1883 48.9724 30.1883 50.7188C30.1883 52.4653 28.7496 53.8721 27.0183 53.8721Z" fill="#FC2C38"/>
<path d="M53.7676 60.4939C49.5978 57.3406 44.8671 62.022 48.0615 66.1698C52.2313 69.323 56.9376 64.6416 53.7676 60.4939Z" fill="white"/>
<path d="M54.3543 60.033C54.3055 59.9845 54.2567 59.936 54.2079 59.8875C51.6963 57.9713 49.0871 58.6019 47.624 60.0573C46.1609 61.5126 45.5513 64.108 47.4533 66.6064C47.5021 66.6549 47.5509 66.7034 47.5996 66.7519C48.7213 67.6008 49.8431 67.9404 50.8916 67.9404C52.2084 67.9404 53.3545 67.3825 54.1836 66.5821C55.6466 65.1267 56.2563 62.5314 54.3543 60.033ZM53.135 65.5633C52.1352 66.5578 50.3551 66.9702 48.5507 65.6604C47.2339 63.8897 47.6484 62.0948 48.6482 61.1003C49.648 60.1058 51.4281 59.6934 53.2325 61.0032C54.5493 62.7739 54.1348 64.5689 53.135 65.5633Z" fill="#FC2C38"/>
<path d="M73.3499 58.9658C75.5047 58.9658 77.2515 57.2282 77.2515 55.0849C77.2515 52.9415 75.5047 51.2039 73.3499 51.2039C71.1951 51.2039 69.4483 52.9415 69.4483 55.0849C69.4483 57.2282 71.1951 58.9658 73.3499 58.9658Z" fill="white"/>
<path d="M73.3501 50.4762C70.7897 50.4762 68.717 52.538 68.717 55.0849C68.717 57.6317 70.7897 59.6935 73.3501 59.6935C75.9105 59.6935 77.9832 57.6317 77.9832 55.0849C77.9832 52.538 75.8861 50.4762 73.3501 50.4762ZM73.3501 58.2381C71.5944 58.2381 70.1801 56.8313 70.1801 55.0849C70.1801 53.3384 71.5944 51.9316 73.3501 51.9316C75.1058 51.9316 76.5202 53.3384 76.5202 55.0849C76.5202 56.8313 75.0814 58.2381 73.3501 58.2381Z" fill="#FC2C38"/>
<path d="M92.8572 26.9481C95.0119 26.9481 96.7587 25.2106 96.7587 23.0672C96.7587 20.9238 95.0119 19.1863 92.8572 19.1863C90.7024 19.1863 88.9556 20.9238 88.9556 23.0672C88.9556 25.2106 90.7024 26.9481 92.8572 26.9481Z" fill="white"/>
<path d="M92.8578 18.4586C90.2974 18.4586 88.2247 20.5203 88.2247 23.0672C88.2247 25.614 90.2974 27.6758 92.8578 27.6758C95.4182 27.6758 97.491 25.614 97.491 23.0672C97.491 20.5203 95.3938 18.4586 92.8578 18.4586ZM92.8578 26.2204C91.1021 26.2204 89.6878 24.8136 89.6878 23.0672C89.6878 21.3208 91.1021 19.9139 92.8578 19.9139C94.6135 19.9139 96.0279 21.3208 96.0279 23.0672C96.0279 24.8136 94.5891 26.2204 92.8578 26.2204Z" fill="#FC2C38"/>
<path d="M25.8465 80.6991L19.799 77.2063C19.7259 77.6914 19.5308 78.1765 19.165 78.5161L25.2125 82.0089C25.2856 81.4996 25.5051 81.0387 25.8465 80.6991Z" fill="#3A312A"/>
<path d="M35.3561 86.1809L29.5281 82.8094C29.455 83.2945 29.2111 83.7553 28.8453 84.0949L34.527 87.3937C34.649 86.9086 34.9416 86.472 35.3561 86.1809Z" fill="#3A312A"/>
<path d="M63.6181 89.989C63.423 89.5281 63.3986 89.0188 63.4718 88.5337L57.4487 89.4069C57.6194 89.8677 57.6194 90.4014 57.4975 90.8622L63.6181 89.989Z" fill="#3A312A"/>
<path d="M70.2262 83.6098L67.4707 87.7575C67.7633 88.2184 67.8608 88.8005 67.7877 89.3584L67.8852 89.3341C68.0803 89.3099 68.2754 89.1886 68.3973 89.0188L71.3479 84.5558C70.8358 84.4102 70.47 84.0464 70.2262 83.6098Z" fill="#3A312A"/>
<path d="M75.3469 75.9206L72.4939 80.2382C73.0547 80.311 73.4937 80.5535 73.7863 80.9174L76.5905 76.6726C76.0541 76.5513 75.6395 76.2845 75.3469 75.9206Z" fill="#3A312A"/>
<path d="M81.273 66.9946L77.7616 72.2824C78.2737 72.4279 78.6638 72.7675 78.9321 73.1798L82.6629 67.5525C82.6142 67.504 82.5898 67.4555 82.5654 67.407C82.0289 67.3827 81.59 67.2372 81.273 66.9946Z" fill="#3A312A"/>
<path d="M86.4187 66.8005C86.3943 66.8248 86.3943 66.849 86.3699 66.8733C86.1993 67.3342 85.9066 67.7465 85.4677 67.9891L90.686 69.9538C90.7104 69.4687 90.8811 68.9593 91.1981 68.5954L86.4187 66.8005Z" fill="#3A312A"/>
<path d="M101.463 72.5007L95.0258 70.0751C95.0258 70.5845 94.9039 71.0696 94.6357 71.4819L101.024 73.9075C101.049 73.3981 101.195 72.8887 101.463 72.5007Z" fill="#3A312A"/>
<path d="M53.2073 90.0376L47.9158 90.8137C48.2815 91.1776 48.501 91.6627 48.5498 92.1963L53.5243 91.4687C53.2804 91.0321 53.1829 90.5227 53.2073 90.0376Z" fill="#3A312A"/>
<path d="M44.4767 91.2988L44.2573 91.323L38.8194 88.1698C38.795 88.6792 38.6244 89.1643 38.3074 89.5524L43.7452 92.7056C43.8915 92.7784 44.0378 92.8269 44.2085 92.8026C44.1353 92.2933 44.2329 91.7596 44.4767 91.2988Z" fill="#3A312A"/>
<path d="M16.1898 75.0959L11.9468 72.6461C11.6054 72.452 11.1421 72.5733 10.9471 72.9129C10.752 73.2525 10.8739 73.7133 11.2153 73.9074L15.4826 76.3815C15.5558 75.8964 15.7996 75.4355 16.1898 75.0959Z" fill="#3A312A"/>
<path d="M109.366 102.845H7.19378V0.727674C7.19378 0.315325 6.87677 0 6.46223 0C6.04769 0 5.73068 0.315325 5.73068 0.727674V103.572C5.73068 103.985 6.04769 104.3 6.46223 104.3H109.366C109.781 104.3 110.098 103.985 110.098 103.572C110.098 103.16 109.781 102.845 109.366 102.845Z" fill="#3A312A"/>
<path d="M6.46223 102.845C6.04769 102.845 5.73068 103.16 5.73068 103.572V109.272C5.73068 109.685 6.04769 110 6.46223 110C6.87677 110 7.19378 109.685 7.19378 109.272V103.572C7.19378 103.16 6.87677 102.845 6.46223 102.845Z" fill="#3A312A"/>
<path d="M22.7765 102.845C22.3619 102.845 22.0449 103.16 22.0449 103.572V109.272C22.0449 109.685 22.3619 110 22.7765 110C23.191 110 23.508 109.685 23.508 109.272V103.572C23.508 103.16 23.191 102.845 22.7765 102.845Z" fill="#3A312A"/>
<path d="M39.1142 102.845C38.6997 102.845 38.3827 103.16 38.3827 103.572V109.272C38.3827 109.685 38.6997 110 39.1142 110C39.5288 110 39.8458 109.685 39.8458 109.272V103.572C39.8458 103.16 39.5044 102.845 39.1142 102.845Z" fill="#3A312A"/>
<path d="M55.4277 102.845C55.0132 102.845 54.6962 103.16 54.6962 103.572V109.272C54.6962 109.685 55.0132 110 55.4277 110C55.8422 110 56.1592 109.685 56.1592 109.272V103.572C56.1592 103.16 55.8422 102.845 55.4277 102.845Z" fill="#3A312A"/>
<path d="M71.7406 102.845C71.326 102.845 71.009 103.16 71.009 103.572V109.272C71.009 109.685 71.326 110 71.7406 110C72.1551 110 72.4721 109.685 72.4721 109.272V103.572C72.4721 103.16 72.1551 102.845 71.7406 102.845Z" fill="#3A312A"/>
<path d="M88.0797 102.845C87.6652 102.845 87.3482 103.16 87.3482 103.572V109.272C87.3482 109.685 87.6652 110 88.0797 110C88.4943 110 88.8113 109.685 88.8113 109.272V103.572C88.8113 103.16 88.4699 102.845 88.0797 102.845Z" fill="#3A312A"/>
<path d="M104.391 102.845C103.976 102.845 103.659 103.16 103.659 103.572V109.272C103.659 109.685 103.976 110 104.391 110C104.805 110 105.122 109.685 105.122 109.272V103.572C105.122 103.16 104.781 102.845 104.391 102.845Z" fill="#3A312A"/>
<path d="M6.46199 102.845H0.731547C0.317003 102.845 0 103.16 0 103.572C0 103.985 0.317003 104.3 0.731547 104.3H6.46199C6.87654 104.3 7.19354 103.985 7.19354 103.572C7.19354 103.16 6.87654 102.845 6.46199 102.845Z" fill="#3A312A"/>
<path d="M6.46199 86.6174H0.731547C0.317003 86.6174 0 86.9327 0 87.3451C0 87.7574 0.317003 88.0728 0.731547 88.0728H6.46199C6.87654 88.0728 7.19354 87.7574 7.19354 87.3451C7.19354 86.9327 6.87654 86.6174 6.46199 86.6174Z" fill="#3A312A"/>
<path d="M6.46199 70.366H0.731547C0.317003 70.366 0 70.6813 0 71.0937C0 71.506 0.317003 71.8213 0.731547 71.8213H6.46199C6.87654 71.8213 7.19354 71.506 7.19354 71.0937C7.19354 70.6813 6.87654 70.366 6.46199 70.366Z" fill="#3A312A"/>
<path d="M6.46199 54.139H0.731547C0.317003 54.139 0 54.4543 0 54.8667C0 55.279 0.317003 55.5943 0.731547 55.5943H6.46199C6.87654 55.5943 7.19354 55.279 7.19354 54.8667C7.19354 54.4543 6.87654 54.139 6.46199 54.139Z" fill="#3A312A"/>
<path d="M6.46199 37.9118H0.731547C0.317003 37.9118 0 38.2271 0 38.6394C0 39.0518 0.317003 39.3671 0.731547 39.3671H6.46199C6.87654 39.3671 7.19354 39.0518 7.19354 38.6394C7.19354 38.2271 6.87654 37.9118 6.46199 37.9118Z" fill="#3A312A"/>
<path d="M6.46199 21.6605H0.731547C0.317003 21.6605 0 21.9758 0 22.3882C0 22.8005 0.317003 23.1158 0.731547 23.1158H6.46199C6.87654 23.1158 7.19354 22.8005 7.19354 22.3882C7.19354 21.9758 6.87654 21.6605 6.46199 21.6605Z" fill="#3A312A"/>
<path d="M6.46199 5.43333H0.731547C0.317003 5.43333 0 5.74866 0 6.16101C0 6.57336 0.317003 6.88868 0.731547 6.88868H6.46199C6.87654 6.88868 7.19354 6.57336 7.19354 6.16101C7.19354 5.74866 6.87654 5.43333 6.46199 5.43333Z" fill="#3A312A"/>
<path d="M46.258 96.0529C48.4128 96.0529 50.1596 94.3154 50.1596 92.172C50.1596 90.0286 48.4128 88.2911 46.258 88.2911C44.1032 88.2911 42.3564 90.0286 42.3564 92.172C42.3564 94.3154 44.1032 96.0529 46.258 96.0529Z" fill="white"/>
<path d="M46.2586 87.5634C43.6982 87.5634 41.6255 89.6251 41.6255 92.1719C41.6255 94.7188 43.6982 96.7805 46.2586 96.7805C48.819 96.7805 50.8918 94.7188 50.8918 92.1719C50.8918 89.6251 48.819 87.5634 46.2586 87.5634ZM46.2586 95.3252C44.5029 95.3252 43.0886 93.9184 43.0886 92.1719C43.0886 90.4255 44.5029 89.0187 46.2586 89.0187C48.0143 89.0187 49.4287 90.4255 49.4287 92.1719C49.4287 93.9184 48.0143 95.3252 46.2586 95.3252Z" fill="#3A312A"/>
<path d="M65.8395 93.021C67.9942 93.021 69.741 91.2834 69.741 89.14C69.741 86.9967 67.9942 85.2591 65.8395 85.2591C63.6847 85.2591 61.9379 86.9967 61.9379 89.14C61.9379 91.2834 63.6847 93.021 65.8395 93.021Z" fill="white"/>
<path d="M65.8392 84.5314C63.2788 84.5314 61.2061 86.5932 61.2061 89.14C61.2061 91.6869 63.2788 93.7486 65.8392 93.7486C68.3997 93.7486 70.4724 91.6869 70.4724 89.14C70.4724 86.5932 68.3997 84.5314 65.8392 84.5314ZM65.8392 92.2933C64.0835 92.2933 62.6692 90.8864 62.6692 89.14C62.6692 87.3936 64.0835 85.9868 65.8392 85.9868C67.595 85.9868 69.0093 87.3936 69.0093 89.14C69.0093 90.8864 67.5706 92.2933 65.8392 92.2933Z" fill="#3A312A"/>
<path d="M84.3219 71.0937C86.4767 71.0937 88.2235 69.3562 88.2235 67.2128C88.2235 65.0694 86.4767 63.3319 84.3219 63.3319C82.1671 63.3319 80.4203 65.0694 80.4203 67.2128C80.4203 69.3562 82.1671 71.0937 84.3219 71.0937Z" fill="white"/>
<path d="M84.3226 62.6041C81.7622 62.6041 79.6895 64.6658 79.6895 67.2127C79.6895 69.7596 81.7622 71.8213 84.3226 71.8213C86.883 71.8213 88.9557 69.7596 88.9557 67.2127C88.9557 64.6658 86.8586 62.6041 84.3226 62.6041ZM84.3226 70.3659C82.5669 70.3659 81.1526 68.9591 81.1526 67.2127C81.1526 65.4663 82.5669 64.0594 84.3226 64.0594C86.0783 64.0594 87.4926 65.4663 87.4926 67.2127C87.4926 68.9591 86.0539 70.3659 84.3226 70.3659Z" fill="#3A312A"/>
<path d="M27.0185 85.8897C29.1733 85.8897 30.9201 84.1522 30.9201 82.0088C30.9201 79.8654 29.1733 78.1279 27.0185 78.1279C24.8637 78.1279 23.1169 79.8654 23.1169 82.0088C23.1169 84.1522 24.8637 85.8897 27.0185 85.8897Z" fill="white"/>
<path d="M27.0183 77.4002C24.4579 77.4002 22.3852 79.4619 22.3852 82.0088C22.3852 84.5556 24.4579 86.6174 27.0183 86.6174C29.5787 86.6174 31.6514 84.5556 31.6514 82.0088C31.6514 79.4619 29.5543 77.4002 27.0183 77.4002ZM27.0183 85.162C25.2626 85.162 23.8483 83.7552 23.8483 82.0088C23.8483 80.2624 25.2626 78.8555 27.0183 78.8555C28.774 78.8555 30.1883 80.2624 30.1883 82.0088C30.1883 83.7552 28.7496 85.162 27.0183 85.162Z" fill="#3A312A"/>
</g>
<defs>
<clipPath id="clip0">
<rect width="111" height="110" fill="white"/>
</clipPath>
</defs>
</svg>
