<svg width="98" height="110" viewBox="0 0 98 110" fill="none" xmlns="http://www.w3.org/2000/svg">
<path d="M27.8144 19.5613C29.3254 19.5613 30.5547 18.332 30.5547 16.8208C30.5547 15.31 29.3254 14.0808 27.8144 14.0808C26.3034 14.0808 25.074 15.31 25.074 16.8208C25.074 18.332 26.3034 19.5613 27.8144 19.5613ZM27.8144 15.7885C28.3839 15.7885 28.8473 16.2517 28.8473 16.821C28.8473 17.3907 28.3839 17.8541 27.8144 17.8541C27.2449 17.8541 26.7815 17.3907 26.7815 16.821C26.7815 16.2517 27.2449 15.7885 27.8144 15.7885Z" fill="#333333"/>
<path d="M35.106 19.5613C36.617 19.5613 37.8463 18.332 37.8463 16.8208C37.8463 15.31 36.617 14.0808 35.106 14.0808C33.595 14.0808 32.3656 15.31 32.3656 16.8208C32.3656 18.332 33.595 19.5613 35.106 19.5613ZM35.106 15.7885C35.6755 15.7885 36.1389 16.2517 36.1389 16.821C36.1389 17.3907 35.6755 17.8541 35.106 17.8541C34.5365 17.8541 34.0731 17.3907 34.0731 16.821C34.0731 16.2517 34.5365 15.7885 35.106 15.7885Z" fill="#333333"/>
<path d="M42.3929 19.5613C43.9039 19.5613 45.1332 18.332 45.1332 16.8208C45.1332 15.31 43.9039 14.0808 42.3929 14.0808C40.8821 14.0808 39.6527 15.31 39.6527 16.8208C39.6527 18.332 40.8821 19.5613 42.3929 19.5613ZM42.3929 15.7885C42.9624 15.7885 43.4258 16.2517 43.4258 16.821C43.4258 17.3907 42.9624 17.8541 42.3929 17.8541C41.8234 17.8541 41.3602 17.3907 41.3602 16.821C41.3602 16.2517 41.8236 15.7885 42.3929 15.7885Z" fill="#333333"/>
<path d="M6.10096 89.9089H22.5388C23.0103 89.9089 23.3925 89.5268 23.3925 89.0551C23.3925 88.5835 23.0103 88.2014 22.5388 88.2014H6.10096C5.6295 88.2014 5.24723 88.5835 5.24723 89.0551C5.24723 89.5268 5.6295 89.9089 6.10096 89.9089Z" fill="#FC2C38"/>
<path d="M6.10096 95.0199H22.5388C23.0103 95.0199 23.3925 94.6378 23.3925 94.1662C23.3925 93.6945 23.0103 93.3124 22.5388 93.3124H6.10096C5.6295 93.3124 5.24723 93.6945 5.24723 94.1662C5.24723 94.6376 5.6295 95.0199 6.10096 95.0199Z" fill="#FC2C38"/>
<path d="M94.5963 82.8201H84.0543V71.6353C84.0543 71.1637 83.672 70.7816 83.2006 70.7816H49.6676V57.2122H74.2429C75.4518 57.2122 76.4351 56.229 76.4351 55.0201V12.1922C76.4351 10.9835 75.4516 10 74.2429 10H23.3846C22.1757 10 21.1924 10.9835 21.1924 12.1922V55.0203C21.1924 56.2292 22.1759 57.2124 23.3846 57.2124H47.9601V70.7818H14.3216C13.8502 70.7818 13.4679 71.1639 13.4679 71.6355V82.8203H2.92596C1.31252 82.8201 0 84.1326 0 85.7461V97.074C0 98.6873 1.31252 100 2.92576 100H25.7175C27.3308 100 28.6433 98.6875 28.6433 97.074V85.7461C28.6433 84.1328 27.3308 82.8203 25.7175 82.8203H15.1754V72.4893H47.9601V82.8203H37.418C35.8047 82.8203 34.4924 84.1328 34.4924 85.7461V97.074C34.4924 98.6873 35.8049 100 37.418 100H60.2097C61.823 100 63.1355 98.6875 63.1355 97.074V85.7461C63.1355 84.1328 61.823 82.8203 60.2097 82.8203H49.6678V72.4893H82.3471V82.8203H71.8049C70.1917 82.8203 68.8791 84.1328 68.8791 85.7461V97.074C68.8791 98.6873 70.1917 100 71.8049 100H94.5967C96.2099 100 97.5224 98.6875 97.5224 97.074V85.7461C97.522 84.1326 96.2095 82.8201 94.5963 82.8201ZM22.8999 28.8803H36.7221C37.1936 28.8803 37.5758 28.4983 37.5758 28.0266C37.5758 27.5549 37.1936 27.1729 36.7221 27.1729H22.8999V23.4215H74.7276V42.2378H60.3039C59.8325 42.2378 59.4502 42.6198 59.4502 43.0915C59.4502 43.5631 59.8325 43.9452 60.3039 43.9452H74.7276V50.4455H22.8999V28.8803ZM23.3846 11.7074H74.2429C74.5103 11.7074 74.7276 11.9248 74.7276 12.1922V15.8405H50.4528C49.9813 15.8405 49.5991 16.2225 49.5991 16.6942C49.5991 17.1658 49.9813 17.5479 50.4528 17.5479H74.7276V21.7141H22.8999V12.1922C22.8999 11.9248 23.1172 11.7074 23.3846 11.7074ZM22.8999 55.0203V52.153H74.7276V55.0201C74.7276 55.2875 74.5103 55.5048 74.2429 55.5048H23.3846C23.1172 55.505 22.8999 55.2877 22.8999 55.0203ZM26.936 85.7461V97.074C26.936 97.746 26.3895 98.2926 25.7177 98.2926H2.92576C2.25383 98.2926 1.70744 97.746 1.70744 97.074V85.7461C1.70744 85.0741 2.25403 84.5277 2.92576 84.5277H25.7175C26.3895 84.5275 26.936 85.0741 26.936 85.7461ZM61.428 85.7461V97.074C61.428 97.746 60.8815 98.2926 60.2097 98.2926H37.4178C36.746 98.2926 36.1996 97.746 36.1996 97.074V85.7461C36.1996 85.0741 36.7462 84.5277 37.4178 84.5277H60.2095C60.8815 84.5275 61.428 85.0741 61.428 85.7461ZM95.8146 97.0738C95.8146 97.7458 95.268 98.2924 94.5963 98.2924H71.8045C71.1326 98.2924 70.5862 97.7458 70.5862 97.0738V85.7459C70.5862 85.0739 71.1328 84.5275 71.8045 84.5275H94.5963C95.2682 84.5275 95.8146 85.0741 95.8146 85.7459V97.0738Z" fill="#333333"/>
<path d="M91.4209 88.2014H74.983C74.5116 88.2014 74.1293 88.5835 74.1293 89.0551C74.1293 89.5268 74.5116 89.9089 74.983 89.9089H91.4209C91.8923 89.9089 92.2746 89.5268 92.2746 89.0551C92.2746 88.5837 91.8925 88.2014 91.4209 88.2014Z" fill="#FC2C38"/>
<path d="M91.4209 93.3124H74.983C74.5116 93.3124 74.1293 93.6945 74.1293 94.1662C74.1293 94.6378 74.5116 95.0199 74.983 95.0199H91.4209C91.8923 95.0199 92.2746 94.6378 92.2746 94.1662C92.2746 93.6945 91.8925 93.3124 91.4209 93.3124Z" fill="#FC2C38"/>
<path d="M40.5952 89.9089H57.0331C57.5046 89.9089 57.8868 89.5268 57.8868 89.0551C57.8868 88.5835 57.5046 88.2014 57.0331 88.2014H40.5952C40.1238 88.2014 39.7415 88.5835 39.7415 89.0551C39.7415 89.5268 40.1238 89.9089 40.5952 89.9089Z" fill="#FC2C38"/>
<path d="M40.5952 95.0199H57.0331C57.5046 95.0199 57.8868 94.6378 57.8868 94.1662C57.8868 93.6945 57.5046 93.3124 57.0331 93.3124H40.5952C40.1238 93.3124 39.7415 93.6945 39.7415 94.1662C39.7415 94.6376 40.1238 95.0199 40.5952 95.0199Z" fill="#FC2C38"/>
</svg>
