<svg width="100" height="110" viewBox="0 0 100 110" fill="none" xmlns="http://www.w3.org/2000/svg">
<path d="M50.2531 73.9727C47.7474 73.9727 45.717 75.9975 45.717 78.4963C45.717 80.995 47.7474 83.0198 50.2531 83.0198C52.7588 83.0198 54.7892 80.995 54.7892 78.4963C54.7892 75.9975 52.7372 73.9727 50.2531 73.9727ZM50.2531 81.1888C48.7627 81.1888 47.553 79.9826 47.553 78.4963C47.553 77.01 48.7627 75.8037 50.2531 75.8037C51.7436 75.8037 52.9532 77.01 52.9532 78.4963C52.9532 79.9826 51.7436 81.1888 50.2531 81.1888Z" fill="white"/>
<path d="M89.1561 21.1123H61.8313C59.52 11.8713 55.5455 4.84909 50.7069 2.11342C50.4261 1.96264 50.0805 1.96264 49.7997 2.11342C44.9396 4.84909 40.9867 11.8713 38.6538 21.1123H11.3506C7.85128 21.1123 5 23.9556 5 27.4452V83.1709C5 86.6605 7.85128 89.5039 11.3506 89.5039H38.4378L35.3705 98.2709H35.0681C32.3464 98.2709 30.1431 100.468 30.1431 103.182V106.801C30.1431 107.296 30.5535 107.706 31.0504 107.706H69.4131C69.9099 107.706 70.3203 107.296 70.3203 106.801V103.182C70.3203 100.468 68.117 98.2709 65.3954 98.2709H65.093L62.0257 89.5039H89.1129C92.6122 89.5039 95.4634 86.6605 95.4634 83.1709V27.4452C95.485 23.9556 92.6554 21.1123 89.1561 21.1123ZM89.1561 22.9432C91.6401 22.9432 93.6706 24.9681 93.6706 27.4452V34.209H77.3837C76.8869 34.209 76.4765 34.6183 76.4765 35.1137C76.4765 35.6091 76.8869 36.0184 77.3837 36.0184H93.6706V68.9325H89.6745C89.4585 66.9077 88.5728 64.9906 87.104 63.5258C86.9528 60.1655 84.8143 57.236 81.6822 56.0512C80.235 53.2725 77.3189 51.4846 74.1652 51.4846C73.3012 51.4846 72.4588 51.6138 71.6595 51.8723C70.2339 47.2195 67.6634 42.976 64.1209 39.4434C64.0561 33.5628 63.4081 27.9622 62.2849 22.9217L89.1561 22.9432ZM36.4073 42.1144C36.4937 46.9611 36.9689 51.6569 37.8114 56.0943C36.5801 57.8391 35.7161 59.8424 35.3057 62.018H29.4087C29.3871 61.5441 29.3655 61.1133 29.3655 60.704C29.3871 53.7679 31.8496 47.2411 36.4073 42.1144ZM64.0777 42.1144C68.6355 47.2626 71.0979 53.7679 71.0979 60.704C71.0979 61.1133 71.0763 61.5656 71.0547 62.018H65.1578C64.7473 59.8424 63.8833 57.8391 62.6521 56.0943C63.5377 51.6569 63.9913 46.9611 64.0777 42.1144ZM63.6241 64.8183C63.6241 64.8829 63.6241 64.9475 63.6241 64.9906H36.8825C36.8825 64.926 36.8825 64.8613 36.8825 64.8183C36.8825 57.4729 42.8875 51.4846 50.2533 51.4846C57.6191 51.4846 63.6241 57.4514 63.6241 64.8183ZM27.6375 63.0088C27.6807 63.4827 28.0695 63.8489 28.5447 63.8489H35.0681C35.0465 64.172 35.0249 64.4952 35.0249 64.8183C35.0249 65.1629 35.0465 65.5506 35.0681 65.9815C35.1113 66.4554 35.5001 66.8215 35.9753 66.8215H64.4449C64.9202 66.8215 65.3306 66.4554 65.3522 65.9815C65.3954 65.5506 65.3954 65.1629 65.3954 64.8183C65.3954 64.4952 65.3738 64.172 65.3522 63.8489H71.8756C72.3508 63.8489 72.7612 63.4827 72.7828 63.0088C72.8476 62.1472 72.8692 61.3933 72.8692 60.704C72.8692 58.2914 72.5884 55.9435 72.0484 53.6602C72.6964 53.4448 73.3876 53.3371 74.0788 53.3371C76.6709 53.3371 79.0254 54.8449 80.1054 57.1929C80.2134 57.4298 80.4078 57.6021 80.6454 57.6883C83.3671 58.593 85.2031 61.1133 85.2031 63.9566C85.2031 64.2151 85.3111 64.4521 85.5056 64.6244C86.7368 65.7661 87.536 67.2954 87.752 68.9541H12.1498C12.3658 67.2954 13.1434 65.7661 14.3963 64.6244C14.5907 64.4521 14.6987 64.2151 14.6987 63.9566C14.6987 61.0917 16.5347 58.5715 19.2564 57.6883C19.494 57.6021 19.6884 57.4298 19.7964 57.1929C20.8765 54.8449 23.2525 53.3371 25.823 53.3371C26.6654 53.3371 27.4863 53.4879 28.2855 53.811C27.7671 56.0512 27.4863 58.3561 27.4863 60.704C27.5511 61.3933 27.5727 62.1472 27.6375 63.0088ZM50.2533 3.98746C53.515 6.05536 56.4743 10.5574 58.6344 16.7611C61.0104 23.5679 62.2633 31.7749 62.2633 40.4989C62.2633 45.2593 61.8961 49.869 61.14 54.2418C58.3752 51.3984 54.5086 49.6321 50.2317 49.6321C45.9548 49.6321 42.0883 51.3984 39.3234 54.2418C38.589 49.869 38.2002 45.2378 38.2002 40.4989C38.2002 31.7749 39.453 23.5679 41.8291 16.7611C44.0323 10.5574 46.9916 6.05536 50.2533 3.98746ZM11.3506 22.9432H38.2218C37.0985 27.9622 36.4721 33.5843 36.3857 39.4649C32.8 43.0191 30.2295 47.3273 28.8039 52.0231C27.8751 51.6785 26.8814 51.5061 25.8662 51.5061C22.6909 51.5061 19.7964 53.294 18.3492 56.0728C15.2171 57.279 13.0786 60.2086 12.9274 63.5474C11.4802 65.0121 10.573 66.9077 10.357 68.9541H6.83605V32.1626H26.1902C26.687 32.1626 27.0974 31.7534 27.0974 31.2579C27.0974 30.7625 26.687 30.3532 26.1902 30.3532H6.83605V27.4668C6.83605 24.9681 8.86651 22.9432 11.3506 22.9432ZM68.5059 103.161V105.875H31.9792V103.161C31.9792 101.459 33.3616 100.08 35.0681 100.08H65.4386C67.1234 100.08 68.5059 101.459 68.5059 103.161ZM63.1921 98.2494H37.3145L40.3818 89.4823H60.1248L63.1921 98.2494ZM89.1561 87.6729H11.3506C8.86651 87.6729 6.83605 85.6481 6.83605 83.1709V77.678H20.5957C21.0925 77.678 21.5029 77.2688 21.5029 76.7733C21.5029 76.2779 21.0925 75.8686 20.5957 75.8686H6.83605V70.8066H93.649V83.1924C93.649 85.6481 91.6401 87.6729 89.1561 87.6729Z" fill="white"/>
<path d="M50.2545 26.2818C53.1274 26.2818 55.4603 23.9554 55.4603 21.0905C55.4603 18.2256 53.1274 15.8992 50.2545 15.8992C47.3816 15.8992 45.0487 18.2256 45.0487 21.0905C45.0487 23.9554 47.3816 26.2818 50.2545 26.2818ZM50.2545 17.7517C52.1122 17.7517 53.6242 19.2595 53.6242 21.112C53.6242 22.9645 52.1122 24.4724 50.2545 24.4724C48.3968 24.4724 46.8848 22.9645 46.8848 21.112C46.8848 19.2595 48.3968 17.7517 50.2545 17.7517Z" fill="white"/>
<path d="M71.6374 51.872C70.2118 47.2192 67.6413 42.9757 64.0988 39.443C64.034 33.5624 63.386 27.9619 62.2627 22.9429L61.8307 21.1119C59.5194 11.871 55.5449 4.84875 50.7064 2.11309C50.4256 1.9623 50.08 1.9623 49.7992 2.11309C44.939 4.84875 40.9861 11.871 38.6532 21.1119L38.2212 22.9429C37.098 27.9619 36.4716 33.584 36.3852 39.4646C35.1971 40.6493 34.0955 41.9418 33.1235 43.3419C30.4234 47.1761 28.7169 51.6135 27.9609 56.2448C27.7017 57.8818 27.5289 59.4112 27.5289 60.7252C27.5289 61.4145 27.5505 62.1684 27.6153 63.0301C27.6585 63.5039 28.0473 63.8701 28.5225 63.8701H35.0459C35.0243 64.1933 35.0027 64.5164 35.0027 64.8395C35.0027 65.1841 35.0243 65.5719 35.0459 66.0027C35.0891 66.4766 35.4779 66.8428 35.9531 66.8428H64.4444C64.9196 66.8428 65.33 66.4766 65.3516 66.0027C65.3948 65.5719 65.3948 65.1841 65.3948 64.8395C65.3948 64.5164 65.3732 64.1933 65.3516 63.8701H71.875C72.3502 63.8701 72.7606 63.5039 72.7822 63.0301C72.847 62.1684 72.8686 61.4145 72.8686 60.7252C72.8686 58.3127 72.5878 55.9647 72.0478 53.6814C72.1342 53.6383 71.6374 51.872 71.6374 51.872ZM41.8501 16.7607C44.0102 10.557 46.9911 6.05503 50.2312 3.98713C53.4929 6.05503 56.4522 10.557 58.6122 16.7607C60.9883 23.5676 62.2411 31.7746 62.2411 40.4985C62.2411 45.259 61.8739 49.8687 61.1179 54.2415C58.353 51.3981 54.4865 49.6318 50.2096 49.6318C45.9326 49.6318 42.0661 51.3981 39.3012 54.2415C38.5668 49.8687 38.178 45.2375 38.178 40.4985C38.2212 31.7746 39.4741 23.5676 41.8501 16.7607ZM35.3051 62.0176H29.4082C29.3866 61.5438 29.365 61.1129 29.365 60.7037C29.365 53.7676 31.849 47.2623 36.3852 42.1141C36.4716 46.9607 36.9468 51.6566 37.7892 56.094C36.5796 57.8388 35.7155 59.842 35.3051 62.0176ZM63.602 64.9903H36.882C36.882 64.9256 36.882 64.861 36.882 64.8179C36.882 57.4726 42.887 51.4843 50.2528 51.4843C57.6186 51.4843 63.6236 57.4726 63.6236 64.8179C63.6236 64.861 63.6236 64.9256 63.602 64.9903ZM71.0758 62.0176H65.1788C64.7684 59.842 63.9044 57.8388 62.6731 56.094C63.5156 51.6566 63.9908 46.9607 64.0772 42.1141C68.6349 47.2623 71.0974 53.7676 71.0974 60.7037C71.119 61.1129 71.0974 61.5438 71.0758 62.0176Z" fill="white"/>
<path d="M50.2545 26.2818C53.1274 26.2818 55.4602 23.9554 55.4602 21.0905C55.4602 18.2256 53.1274 15.8992 50.2545 15.8992C47.3816 15.8992 45.0487 18.2256 45.0487 21.0905C45.0487 23.9554 47.3816 26.2818 50.2545 26.2818ZM50.2545 17.7517C52.1121 17.7517 53.6242 19.2595 53.6242 21.112C53.6242 22.9645 52.1121 24.4724 50.2545 24.4724C48.3968 24.4724 46.8848 22.9645 46.8848 21.112C46.8848 19.2595 48.3968 17.7517 50.2545 17.7517Z" fill="white"/>
</svg>
