<svg width="100" height="110" viewBox="0 0 100 110" fill="none" xmlns="http://www.w3.org/2000/svg">
<path d="M60.8616 29.3616V21.5669V12.2261H1V98.2215H60.8616V73.609" stroke="#333333" stroke-width="1.7" stroke-miterlimit="10"/>
<path d="M60.8616 15.9539H1V5.76576C1 3.1393 3.14019 1 5.76774 1H56.0939C58.7214 1 60.8616 3.1393 60.8616 5.76576V15.9539Z" stroke="#333333" stroke-width="1.7" stroke-miterlimit="10"/>
<path d="M56.0939 108.954H5.76774C3.14019 108.954 1 106.815 1 104.188V94H60.8616V104.188C60.8616 106.815 58.7214 108.954 56.0939 108.954Z" stroke="#333333" stroke-width="1.7" stroke-miterlimit="10"/>
<path d="M30.9215 103.488C35.0526 103.488 38.4015 100.14 38.4015 96.0109C38.4015 91.8815 35.0526 88.5339 30.9215 88.5339C26.7903 88.5339 23.4414 91.8815 23.4414 96.0109C23.4414 100.14 26.7903 103.488 30.9215 103.488Z" fill="white" stroke="#333333" stroke-width="1.7" stroke-miterlimit="10"/>
<path d="M30.9235 8.26182H19.6928C18.6545 8.26182 17.8281 7.43575 17.8281 6.39788C17.8281 5.36 18.6757 4.53394 19.6928 4.53394H30.9235C31.9618 4.53394 32.7882 5.36 32.7882 6.39788C32.7882 7.43575 31.9618 8.26182 30.9235 8.26182Z" stroke="#333333" stroke-width="1.7" stroke-miterlimit="10"/>
<path d="M42.1513 8.26182H40.2866C39.2483 8.26182 38.4219 7.43575 38.4219 6.39788C38.4219 5.36 39.2695 4.53394 40.2866 4.53394H42.1513C43.1896 4.53394 44.016 5.36 44.016 6.39788C44.016 7.43575 43.1896 8.26182 42.1513 8.26182Z" stroke="#333333" stroke-width="1.7" stroke-miterlimit="10"/>
<path d="M27.1877 28.2618H17.8217C16.7834 28.2618 15.957 27.4357 15.957 26.3979C15.957 25.36 16.8046 24.5339 17.8217 24.5339H27.1665C28.2048 24.5339 29.0312 25.36 29.0312 26.3979C29.0524 27.4357 28.226 28.2618 27.1877 28.2618Z" stroke="#333333" stroke-width="1.7" stroke-miterlimit="10"/>
<path d="M10.3427 28.2618H8.478C7.43969 28.2618 6.61328 27.4357 6.61328 26.3979C6.61328 25.36 7.46088 24.5339 8.478 24.5339H10.3427C11.381 24.5339 12.2074 25.36 12.2074 26.3979C12.2286 27.4357 11.381 28.2618 10.3427 28.2618Z" stroke="#333333" stroke-width="1.7" stroke-miterlimit="10"/>
<path d="M17.8228 35.7601H8.478C7.43969 35.7601 6.61328 34.934 6.61328 33.8962C6.61328 32.8583 7.46088 32.0322 8.478 32.0322H17.8228C18.8611 32.0322 19.6875 32.8583 19.6875 33.8962C19.6875 34.934 18.8611 35.7601 17.8228 35.7601Z" stroke="#333333" stroke-width="1.7" stroke-miterlimit="10"/>
<path d="M27.1904 35.7601H25.3257C24.2873 35.7601 23.4609 34.934 23.4609 33.8962C23.4609 32.8583 24.3085 32.0322 25.3257 32.0322H27.1904C28.2287 32.0322 29.0551 32.8583 29.0551 33.8962C29.0551 34.934 28.2287 35.7601 27.1904 35.7601Z" stroke="#333333" stroke-width="1.7" stroke-miterlimit="10"/>
<path d="M27.1877 43.2369H17.8217C16.7834 43.2369 15.957 42.4108 15.957 41.373C15.957 40.3351 16.8046 39.509 17.8217 39.509H27.1665C28.2048 39.509 29.0312 40.3351 29.0312 41.373C29.0312 42.4108 28.226 43.2369 27.1877 43.2369Z" stroke="#333333" stroke-width="1.7" stroke-miterlimit="10"/>
<path d="M10.3427 43.2369H8.478C7.43969 43.2369 6.61328 42.4108 6.61328 41.373C6.61328 40.3351 7.46088 39.509 8.478 39.509H10.3427C11.381 39.509 12.2074 40.3351 12.2074 41.373C12.2074 42.4108 11.381 43.2369 10.3427 43.2369Z" stroke="#333333" stroke-width="1.7" stroke-miterlimit="10"/>
<path d="M17.8228 50.714H8.478C7.43969 50.714 6.61328 49.8879 6.61328 48.85C6.61328 47.8121 7.46088 46.9861 8.478 46.9861H17.8228C18.8611 46.9861 19.6875 47.8121 19.6875 48.85C19.7087 49.8667 18.8611 50.714 17.8228 50.714Z" stroke="#333333" stroke-width="1.7" stroke-miterlimit="10"/>
<path d="M27.1904 50.714H25.3257C24.2873 50.714 23.4609 49.8879 23.4609 48.85C23.4609 47.8121 24.3085 46.9861 25.3257 46.9861H27.1904C28.2287 46.9861 29.0551 47.8121 29.0551 48.85C29.0551 49.8667 28.2287 50.714 27.1904 50.714Z" stroke="#333333" stroke-width="1.7" stroke-miterlimit="10"/>
<path d="M27.1877 58.191H17.8217C16.7834 58.191 15.957 57.365 15.957 56.3271C15.957 55.2892 16.8046 54.4631 17.8217 54.4631H27.1665C28.2048 54.4631 29.0312 55.2892 29.0312 56.3271C29.0312 57.365 28.226 58.191 27.1877 58.191Z" stroke="#333333" stroke-width="1.7" stroke-miterlimit="10"/>
<path d="M10.3427 58.191H8.478C7.43969 58.191 6.61328 57.365 6.61328 56.3271C6.61328 55.2892 7.46088 54.4631 8.478 54.4631H10.3427C11.381 54.4631 12.2074 55.2892 12.2074 56.3271C12.2074 57.365 11.381 58.191 10.3427 58.191Z" stroke="#333333" stroke-width="1.7" stroke-miterlimit="10"/>
<path d="M17.8228 65.6678H8.478C7.43969 65.6678 6.61328 64.8418 6.61328 63.8039C6.61328 62.766 7.46088 61.9399 8.478 61.9399H17.8228C18.8611 61.9399 19.6875 62.766 19.6875 63.8039C19.7087 64.8206 18.8611 65.6678 17.8228 65.6678Z" stroke="#333333" stroke-width="1.7" stroke-miterlimit="10"/>
<path d="M27.1904 65.6678H25.3257C24.2873 65.6678 23.4609 64.8418 23.4609 63.8039C23.4609 62.766 24.3085 61.9399 25.3257 61.9399H27.1904C28.2287 61.9399 29.0551 62.766 29.0551 63.8039C29.0551 64.8206 28.2287 65.6678 27.1904 65.6678Z" stroke="#333333" stroke-width="1.7" stroke-miterlimit="10"/>
<path d="M27.1877 73.1446H17.8217C16.7834 73.1446 15.957 72.3186 15.957 71.2807C15.957 70.2428 16.8046 69.4167 17.8217 69.4167H27.1665C28.2048 69.4167 29.0312 70.2428 29.0312 71.2807C29.0524 72.3186 28.226 73.1446 27.1877 73.1446Z" stroke="#333333" stroke-width="1.7" stroke-miterlimit="10"/>
<path d="M10.3427 73.1446H8.478C7.43969 73.1446 6.61328 72.3186 6.61328 71.2807C6.61328 70.2428 7.46088 69.4167 8.478 69.4167H10.3427C11.381 69.4167 12.2074 70.2428 12.2074 71.2807C12.2286 72.3186 11.381 73.1446 10.3427 73.1446Z" stroke="#333333" stroke-width="1.7" stroke-miterlimit="10"/>
<path d="M17.8228 80.6217H8.478C7.43969 80.6217 6.61328 79.7956 6.61328 78.7577C6.61328 77.7199 7.46088 76.8938 8.478 76.8938H17.8228C18.8611 76.8938 19.6875 77.7199 19.6875 78.7577C19.7087 79.7956 18.8611 80.6217 17.8228 80.6217Z" stroke="#333333" stroke-width="1.7" stroke-miterlimit="10"/>
<path d="M27.1904 80.6217H25.3257C24.2873 80.6217 23.4609 79.7956 23.4609 78.7577C23.4609 77.7199 24.3085 76.8938 25.3257 76.8938H27.1904C28.2287 76.8938 29.0551 77.7199 29.0551 78.7577C29.0551 79.7956 28.2287 80.6217 27.1904 80.6217Z" stroke="#333333" stroke-width="1.7" stroke-miterlimit="10"/>
<path d="M81.5187 75.113L73.3817 66.9794C73.2546 67.1277 70.839 69.3093 70.6482 69.4152C70.6271 69.4364 70.6059 69.4576 70.5847 69.4788L78.8699 77.7606L81.5187 75.113Z" stroke="#FC2C38" stroke-width="1.7" stroke-miterlimit="10"/>
<path d="M97.1809 93.3921C95.7188 94.8536 93.3455 94.8536 91.8834 93.3921L77.559 79.0737L82.8565 73.7784L97.1809 88.0969C98.643 89.5584 98.643 91.9306 97.1809 93.3921Z" stroke="#FC2C38" stroke-width="1.7" stroke-miterlimit="10"/>
<path d="M57.1098 73.9056C69.5031 73.9056 79.55 63.863 79.55 51.4748C79.55 39.0866 69.5031 29.044 57.1098 29.044C44.7164 29.044 34.6696 39.0866 34.6696 51.4748C34.6696 63.863 44.7164 73.9056 57.1098 73.9056Z" stroke="#FC2C38" stroke-width="1.7" stroke-miterlimit="10"/>
<path d="M49.6302 40.2701C48.9945 40.2701 48.3588 39.9312 48.0197 39.3382C47.49 38.4486 47.8078 37.3048 48.6978 36.7753C51.1135 35.3773 53.9317 34.6571 57.1102 34.6571C58.1485 34.6571 58.9749 35.4832 58.9749 36.5211C58.9749 37.559 58.1485 38.385 57.1102 38.385C54.6098 38.385 52.406 38.9357 50.5625 39.9948C50.287 40.1854 49.948 40.2701 49.6302 40.2701Z" stroke="#FC2C38" stroke-width="1.7" stroke-miterlimit="10"/>
<path d="M42.1921 53.36C41.175 53.36 40.3486 52.5339 40.3274 51.5172C40.285 48.2977 40.9631 45.5441 42.404 43.0659C42.9337 42.1763 44.078 41.8798 44.968 42.3881C45.858 42.9177 46.1546 44.0615 45.6461 44.9511C44.5442 46.8362 44.0356 48.9119 44.078 51.4537C44.0992 52.4916 43.2728 53.3388 42.2345 53.36C42.2133 53.36 42.2133 53.36 42.1921 53.36Z" stroke="#FC2C38" stroke-width="1.7" stroke-miterlimit="10"/>
</svg>
