<svg width="85" height="110" viewBox="0 0 85 110" fill="none" xmlns="http://www.w3.org/2000/svg">
<path d="M83.9428 102.83C83.9428 103.537 83.3873 104.092 82.6804 104.092H2.26245C1.55548 104.092 1 103.537 1 102.83V7.26246C1 6.55548 1.55548 6.00001 2.26245 6.00001H82.6804C83.3873 6.00001 83.9428 6.55548 83.9428 7.26246V102.83Z" stroke="#333333" stroke-width="1.6" stroke-miterlimit="10"/>
<path d="M74.0222 18.8265H56.449C55.4138 18.8265 54.5553 17.9681 54.5553 16.9329C54.5553 15.8977 55.4138 15.0392 56.449 15.0392H74.0222C75.0575 15.0392 75.9159 15.8977 75.9159 16.9329C75.9159 17.9681 75.0575 18.8265 74.0222 18.8265Z" stroke="#333333" stroke-width="1.6" stroke-miterlimit="10"/>
<path d="M74.0222 25.2651H56.449C55.4138 25.2651 54.5553 24.4067 54.5553 23.3715C54.5553 22.3363 55.4138 21.4778 56.449 21.4778H74.0222C75.0575 21.4778 75.9159 22.3363 75.9159 23.3715C75.9159 24.4067 75.0575 25.2651 74.0222 25.2651Z" stroke="#333333" stroke-width="1.6" stroke-miterlimit="10"/>
<path d="M74.0222 31.7035H56.449C55.4138 31.7035 54.5553 30.845 54.5553 29.8098C54.5553 28.7746 55.4138 27.9161 56.449 27.9161H74.0222C75.0575 27.9161 75.9159 28.7746 75.9159 29.8098C75.9159 30.845 75.0575 31.7035 74.0222 31.7035Z" stroke="#333333" stroke-width="1.6" stroke-miterlimit="10"/>
<path d="M74.0222 38.1421H56.449C55.4138 38.1421 54.5553 37.2836 54.5553 36.2484C54.5553 35.2132 55.4138 34.3547 56.449 34.3547H74.0222C75.0575 34.3547 75.9159 35.2132 75.9159 36.2484C75.9159 37.2836 75.0575 38.1421 74.0222 38.1421Z" stroke="#333333" stroke-width="1.6" stroke-miterlimit="10"/>
<path d="M41.2684 83.0848H11.7018C10.6666 83.0848 9.80817 82.2263 9.80817 81.1911C9.80817 80.1559 10.6666 79.2974 11.7018 79.2974H41.2936C42.3288 79.2974 43.1873 80.1559 43.1873 81.1911C43.162 82.2263 42.3288 83.0848 41.2684 83.0848Z" stroke="#333333" stroke-width="1.6" stroke-miterlimit="10"/>
<path d="M41.2684 89.5234H11.7018C10.6666 89.5234 9.80817 88.6649 9.80817 87.6297C9.80817 86.5945 10.6666 85.736 11.7018 85.736H41.2936C42.3288 85.736 43.1873 86.5945 43.1873 87.6297C43.162 88.6649 42.3288 89.5234 41.2684 89.5234Z" stroke="#333333" stroke-width="1.6" stroke-miterlimit="10"/>
<path d="M41.2684 95.9618H11.7018C10.6666 95.9618 9.80817 95.1033 9.80817 94.0681C9.80817 93.0329 10.6666 92.1744 11.7018 92.1744H41.2936C42.3288 92.1744 43.1873 93.0329 43.1873 94.0681C43.162 95.1033 42.3288 95.9618 41.2684 95.9618Z" stroke="#333333" stroke-width="1.6" stroke-miterlimit="10"/>
<path d="M74.0238 49.3777H47.0831C46.0479 49.3777 45.1895 48.5192 45.1895 47.484C45.1895 46.4488 46.0479 45.5903 47.0831 45.5903H74.0238C75.059 45.5903 75.9174 46.4488 75.9174 47.484C75.9174 48.5192 75.059 49.3777 74.0238 49.3777Z" stroke="#333333" stroke-width="1.6" stroke-miterlimit="10"/>
<path d="M74.0238 55.8163H47.0831C46.0479 55.8163 45.1895 54.9579 45.1895 53.9227C45.1895 52.8875 46.0479 52.029 47.0831 52.029H74.0238C75.059 52.029 75.9174 52.8875 75.9174 53.9227C75.9174 54.9579 75.059 55.8163 74.0238 55.8163Z" stroke="#333333" stroke-width="1.6" stroke-miterlimit="10"/>
<path d="M74.0238 62.2547H47.0831C46.0479 62.2547 45.1895 61.3962 45.1895 60.361C45.1895 59.3258 46.0479 58.4674 47.0831 58.4674H74.0238C75.059 58.4674 75.9174 59.3258 75.9174 60.361C75.9174 61.3962 75.059 62.2547 74.0238 62.2547Z" stroke="#333333" stroke-width="1.6" stroke-miterlimit="10"/>
<path d="M74.0238 68.6933H47.0831C46.0479 68.6933 45.1895 67.8348 45.1895 66.7996C45.1895 65.7644 46.0479 64.906 47.0831 64.906H74.0238C75.059 64.906 75.9174 65.7644 75.9174 66.7996C75.9174 67.8348 75.059 68.6933 74.0238 68.6933Z" stroke="#333333" stroke-width="1.6" stroke-miterlimit="10"/>
<path d="M8.29919 60.4883H15.6719C15.6719 56.4232 18.9795 53.1156 23.0446 53.1156V45.7429C14.9144 45.7176 8.29919 52.3329 8.29919 60.4883Z" stroke="#FC2C38" stroke-width="1.6" stroke-miterlimit="10"/>
<path d="M26.807 41.9544V49.3271C30.8721 49.3271 34.1797 52.6347 34.1797 56.6998H41.5524C41.5776 48.5696 34.9624 41.9544 26.807 41.9544Z" stroke="#FC2C38" stroke-width="1.6" stroke-miterlimit="10"/>
<path d="M30.4425 60.4873C30.4425 64.5523 27.1349 67.8599 23.0698 67.8599C19.0048 67.8599 15.6971 64.5523 15.6971 60.4873H8.29919C8.29919 68.6427 14.9144 75.2579 23.0698 75.2579C31.2252 75.2579 37.8405 68.6427 37.8405 60.4873H30.4425Z" stroke="#FC2C38" stroke-width="1.6" stroke-miterlimit="10"/>
<path d="M16.7826 35.0615V17.4378C16.7826 17.0085 16.4291 16.6803 16.0251 16.6803H11.4298C11.0258 16.6803 10.6724 17.0085 10.6724 17.4378V35.0615H16.7826Z" stroke="#333333" stroke-width="1.6" stroke-miterlimit="10"/>
<path d="M26.6537 35.0617V22.2353C26.6537 21.806 26.3002 21.4778 25.8962 21.4778H21.3009C20.8969 21.4778 20.5435 21.806 20.5435 22.2353V35.0617H26.6537Z" stroke="#333333" stroke-width="1.6" stroke-miterlimit="10"/>
<path d="M36.5286 35.0615V28.0423C36.5286 27.6131 36.1751 27.2849 35.7711 27.2849H31.1758C30.7718 27.2849 30.4183 27.6131 30.4183 28.0423V35.0615H36.5286Z" stroke="#333333" stroke-width="1.6" stroke-miterlimit="10"/>
<path d="M46.3997 35.0615V17.4378C46.3997 17.0085 46.0462 16.6803 45.6422 16.6803H41.0469C40.6429 16.6803 40.2894 17.0085 40.2894 17.4378V35.0615H46.3997Z" stroke="#333333" stroke-width="1.6" stroke-miterlimit="10"/>
<path d="M65.0557 86.7211C65.0557 86.2919 65.384 85.9636 65.8132 85.9636H69.2471V77.48C69.2471 76.773 68.6916 76.2175 67.9846 76.2175H56.5973C55.8904 76.2175 55.3349 76.773 55.3349 77.48V88.8673C55.3349 89.5742 55.8904 90.1297 56.5973 90.1297H65.081V86.7211H65.0557Z" stroke="#FC2C38" stroke-width="1.6" stroke-miterlimit="10"/>
<path d="M74.0171 93.6644C74.0171 94.3714 73.4616 94.9269 72.7546 94.9269H65.8112C65.1042 94.9269 64.5487 94.3714 64.5487 93.6644V86.721C64.5487 86.014 65.1042 85.4585 65.8112 85.4585H72.7546C73.4616 85.4585 74.0171 86.014 74.0171 86.721V93.6644Z" fill="white" stroke="#FC2C38" stroke-width="1.6" stroke-miterlimit="10"/>
<path d="M47.7129 38.1418H9.35974C8.32453 38.1418 7.46606 37.2834 7.46606 36.2482C7.46606 35.213 8.32453 34.3545 9.35974 34.3545H47.7129C48.7481 34.3545 49.6066 35.213 49.6066 36.2482C49.6066 37.2834 48.7481 38.1418 47.7129 38.1418Z" fill="white" stroke="#333333" stroke-width="1.6" stroke-miterlimit="10"/>
</svg>
